<svg width="513" height="512" viewBox="0 0 513 512" fill="none" xmlns="http://www.w3.org/2000/svg">
<rect x="0.790649" width="512" height="512" rx="112" fill="#EB5E5E"/>
<path d="M20.6759 414.445L124.04 394.195L223.095 265.055L287.499 270.005L376.713 240.024L429.718 191.113L473 92" stroke="white" stroke-opacity="0.5" stroke-width="10"/>
<path d="M92 188.636C86.8182 188.636 82.3636 187.97 78.6363 186.636C74.9091 185.333 71.803 183.606 69.3182 181.455C66.8636 179.333 64.9091 177.061 63.4545 174.636L72 168.636C72.9697 169.909 74.1969 171.364 75.6818 173C77.1666 174.667 79.1969 176.106 81.7727 177.318C84.3788 178.561 87.7878 179.182 92 179.182C97.6363 179.182 102.288 177.818 105.955 175.091C109.621 172.364 111.455 168.091 111.455 162.273V148.091H110.545C109.758 149.364 108.636 150.939 107.182 152.818C105.758 154.667 103.697 156.318 101 157.773C98.3333 159.197 94.7272 159.909 90.1818 159.909C84.5454 159.909 79.4848 158.576 75 155.909C70.5454 153.242 67.0151 149.364 64.4091 144.273C61.8333 139.182 60.5454 133 60.5454 125.727C60.5454 118.576 61.803 112.348 64.3182 107.045C66.8333 101.712 70.3333 97.5909 74.8182 94.6818C79.303 91.7424 84.4848 90.2727 90.3636 90.2727C94.9091 90.2727 98.5151 91.0303 101.182 92.5455C103.879 94.0303 105.939 95.7273 107.364 97.6364C108.818 99.5151 109.939 101.061 110.727 102.273H111.818V91.1818H122.182V163C122.182 169 120.818 173.879 118.091 177.636C115.394 181.424 111.758 184.197 107.182 185.955C102.636 187.742 97.5757 188.636 92 188.636ZM91.6363 150.273C95.9394 150.273 99.5757 149.288 102.545 147.318C105.515 145.348 107.773 142.515 109.318 138.818C110.864 135.121 111.636 130.697 111.636 125.545C111.636 120.515 110.879 116.076 109.364 112.227C107.848 108.379 105.606 105.364 102.636 103.182C99.6666 101 96 99.9091 91.6363 99.9091C87.0909 99.9091 83.303 101.061 80.2727 103.364C77.2727 105.667 75.0151 108.758 73.5 112.636C72.0151 116.515 71.2727 120.818 71.2727 125.545C71.2727 130.394 72.0303 134.682 73.5454 138.409C75.0909 142.106 77.3636 145.015 80.3636 147.136C83.3939 149.227 87.1515 150.273 91.6363 150.273ZM141.818 161V91.1818H152.182V101.727H152.909C154.182 98.2727 156.485 95.4697 159.818 93.3182C163.151 91.1667 166.909 90.0909 171.091 90.0909C171.879 90.0909 172.864 90.1061 174.045 90.1364C175.227 90.1667 176.121 90.2121 176.727 90.2727V101.182C176.364 101.091 175.53 100.955 174.227 100.773C172.955 100.561 171.606 100.455 170.182 100.455C166.788 100.455 163.758 101.167 161.091 102.591C158.455 103.985 156.364 105.924 154.818 108.409C153.303 110.864 152.545 113.667 152.545 116.818V161H141.818ZM209.989 162.636C205.564 162.636 201.549 161.803 197.943 160.136C194.337 158.439 191.473 156 189.352 152.818C187.231 149.606 186.17 145.727 186.17 141.182C186.17 137.182 186.958 133.939 188.534 131.455C190.11 128.939 192.216 126.97 194.852 125.545C197.489 124.121 200.398 123.061 203.58 122.364C206.792 121.636 210.019 121.061 213.261 120.636C217.504 120.091 220.943 119.682 223.58 119.409C226.246 119.106 228.186 118.606 229.398 117.909C230.64 117.212 231.261 116 231.261 114.273V113.909C231.261 109.424 230.034 105.939 227.58 103.455C225.155 100.97 221.473 99.7273 216.534 99.7273C211.413 99.7273 207.398 100.848 204.489 103.091C201.58 105.333 199.534 107.727 198.352 110.273L188.17 106.636C189.989 102.394 192.413 99.0909 195.443 96.7273C198.504 94.3333 201.837 92.6667 205.443 91.7273C209.08 90.7576 212.655 90.2727 216.17 90.2727C218.413 90.2727 220.989 90.5455 223.898 91.0909C226.837 91.6061 229.67 92.6818 232.398 94.3182C235.155 95.9545 237.443 98.4242 239.261 101.727C241.08 105.03 241.989 109.455 241.989 115V161H231.261V151.545H230.716C229.989 153.061 228.776 154.682 227.08 156.409C225.383 158.136 223.125 159.606 220.307 160.818C217.489 162.03 214.049 162.636 209.989 162.636ZM211.625 153C215.867 153 219.443 152.167 222.352 150.5C225.292 148.833 227.504 146.682 228.989 144.045C230.504 141.409 231.261 138.636 231.261 135.727V125.909C230.807 126.455 229.807 126.955 228.261 127.409C226.746 127.833 224.989 128.212 222.989 128.545C221.019 128.848 219.095 129.121 217.216 129.364C215.367 129.576 213.867 129.758 212.716 129.909C209.928 130.273 207.322 130.864 204.898 131.682C202.504 132.47 200.564 133.667 199.08 135.273C197.625 136.848 196.898 139 196.898 141.727C196.898 145.455 198.276 148.273 201.034 150.182C203.822 152.061 207.352 153 211.625 153ZM261.568 187.182V91.1818H271.932V102.273H273.205C273.992 101.061 275.083 99.5151 276.477 97.6364C277.901 95.7273 279.932 94.0303 282.568 92.5455C285.235 91.0303 288.841 90.2727 293.386 90.2727C299.265 90.2727 304.447 91.7424 308.932 94.6818C313.417 97.6212 316.917 101.788 319.432 107.182C321.947 112.576 323.205 118.939 323.205 126.273C323.205 133.667 321.947 140.076 319.432 145.5C316.917 150.894 313.432 155.076 308.977 158.045C304.523 160.985 299.386 162.455 293.568 162.455C289.083 162.455 285.492 161.712 282.795 160.227C280.098 158.712 278.023 157 276.568 155.091C275.114 153.152 273.992 151.545 273.205 150.273H272.295V187.182H261.568ZM272.114 126.091C272.114 131.364 272.886 136.015 274.432 140.045C275.977 144.045 278.235 147.182 281.205 149.455C284.174 151.697 287.811 152.818 292.114 152.818C296.598 152.818 300.341 151.636 303.341 149.273C306.371 146.879 308.644 143.667 310.159 139.636C311.705 135.576 312.477 131.061 312.477 126.091C312.477 121.182 311.72 116.758 310.205 112.818C308.72 108.848 306.462 105.712 303.432 103.409C300.432 101.076 296.659 99.9091 292.114 99.9091C287.75 99.9091 284.083 101.015 281.114 103.227C278.144 105.409 275.901 108.47 274.386 112.409C272.871 116.318 272.114 120.879 272.114 126.091ZM350.295 119V161H339.568V67.9091H350.295V102.091H351.205C352.841 98.4848 355.295 95.6212 358.568 93.5C361.871 91.3485 366.265 90.2727 371.75 90.2727C376.508 90.2727 380.674 91.2273 384.25 93.1364C387.826 95.0151 390.598 97.9091 392.568 101.818C394.568 105.697 395.568 110.636 395.568 116.636V161H384.841V117.364C384.841 111.818 383.401 107.53 380.523 104.5C377.674 101.439 373.72 99.9091 368.659 99.9091C365.144 99.9091 361.992 100.652 359.205 102.136C356.447 103.621 354.265 105.788 352.659 108.636C351.083 111.485 350.295 114.939 350.295 119Z" fill="white" fill-opacity="0.5"/>
<circle cx="224" cy="266" r="7.5" fill="#CECECE" stroke="white"/>
<circle cx="287" cy="269" r="7.5" fill="#CECECE" stroke="white"/>
<circle cx="378" cy="239" r="7.5" fill="#CECECE" stroke="white"/>
<circle cx="431" cy="188" r="7.5" fill="#CECECE" stroke="white"/>
<circle cx="471" cy="96" r="7.5" fill="#CECECE" stroke="white"/>
<circle cx="126" cy="392" r="7.5" fill="#CECECE" stroke="white"/>
<circle cx="27" cy="413" r="7.5" fill="#CECECE" stroke="white"/>
<path d="M389 336C389 338.761 391.239 341 394 341C396.761 341 399 338.761 399 336L389 336ZM397.536 262.464C395.583 260.512 392.417 260.512 390.464 262.464L358.645 294.284C356.692 296.237 356.692 299.403 358.645 301.355C360.597 303.308 363.763 303.308 365.716 301.355L394 273.071L422.284 301.355C424.237 303.308 427.403 303.308 429.355 301.355C431.308 299.403 431.308 296.237 429.355 294.284L397.536 262.464ZM399 336L399 266L389 266L389 336L399 336Z" fill="#42FF6D" fill-opacity="0.75"/>
<path d="M344 301C344 298.239 341.761 296 339 296C336.239 296 334 298.239 334 301L344 301ZM335.464 374.536C337.417 376.488 340.583 376.488 342.536 374.536L374.355 342.716C376.308 340.763 376.308 337.597 374.355 335.645C372.403 333.692 369.237 333.692 367.284 335.645L339 363.929L310.716 335.645C308.763 333.692 305.597 333.692 303.645 335.645C301.692 337.597 301.692 340.763 303.645 342.716L335.464 374.536ZM334 301L334 371L344 371L344 301L334 301Z" fill="#FF3649" fill-opacity="0.75"/>
</svg>
