<svg width="190" height="44" viewBox="0 0 190 44" fill="none" xmlns="http://www.w3.org/2000/svg">
<rect width="190" height="44" rx="8" fill="#4FC693"/>
<path d="M56.2393 28V16.3636H60.3871C61.2924 16.3636 62.0424 16.5284 62.6371 16.858C63.2318 17.1875 63.6768 17.6383 63.9723 18.2102C64.2678 18.7784 64.4155 19.4186 64.4155 20.1307C64.4155 20.8466 64.2659 21.4905 63.9666 22.0625C63.6712 22.6307 63.2242 23.0814 62.6257 23.4148C62.031 23.7443 61.2829 23.9091 60.3814 23.9091H57.5291V22.4205H60.2223C60.7943 22.4205 61.2583 22.322 61.6143 22.125C61.9704 21.9242 62.2318 21.6515 62.3984 21.3068C62.5651 20.9621 62.6484 20.5701 62.6484 20.1307C62.6484 19.6913 62.5651 19.3011 62.3984 18.9602C62.2318 18.6193 61.9685 18.3523 61.6087 18.1591C61.2526 17.9659 60.7829 17.8693 60.1996 17.8693H57.995V28H56.2393ZM69.9041 28.1761C69.0859 28.1761 68.3719 27.9886 67.7621 27.6136C67.1522 27.2386 66.6787 26.714 66.3416 26.0398C66.0045 25.3655 65.8359 24.5777 65.8359 23.6761C65.8359 22.7708 66.0045 21.9792 66.3416 21.3011C66.6787 20.6231 67.1522 20.0966 67.7621 19.7216C68.3719 19.3466 69.0859 19.1591 69.9041 19.1591C70.7223 19.1591 71.4363 19.3466 72.0462 19.7216C72.656 20.0966 73.1295 20.6231 73.4666 21.3011C73.8037 21.9792 73.9723 22.7708 73.9723 23.6761C73.9723 24.5777 73.8037 25.3655 73.4666 26.0398C73.1295 26.714 72.656 27.2386 72.0462 27.6136C71.4363 27.9886 70.7223 28.1761 69.9041 28.1761ZM69.9098 26.75C70.4401 26.75 70.8795 26.6098 71.228 26.3295C71.5765 26.0492 71.834 25.6761 72.0007 25.2102C72.1712 24.7443 72.2564 24.2311 72.2564 23.6705C72.2564 23.1136 72.1712 22.6023 72.0007 22.1364C71.834 21.6667 71.5765 21.2898 71.228 21.0057C70.8795 20.7216 70.4401 20.5795 69.9098 20.5795C69.3757 20.5795 68.9325 20.7216 68.5803 21.0057C68.2318 21.2898 67.9723 21.6667 67.8018 22.1364C67.6352 22.6023 67.5518 23.1136 67.5518 23.6705C67.5518 24.2311 67.6352 24.7443 67.8018 25.2102C67.9723 25.6761 68.2318 26.0492 68.5803 26.3295C68.9325 26.6098 69.3757 26.75 69.9098 26.75ZM77.495 28L74.9268 19.2727H76.6825L78.3928 25.6818H78.478L80.1939 19.2727H81.9496L83.6541 25.6534H83.7393L85.4382 19.2727H87.1939L84.6314 28H82.8984L81.1257 21.6989H80.995L79.2223 28H77.495ZM92.3018 28.1761C91.442 28.1761 90.7015 27.9924 90.0803 27.625C89.4628 27.2538 88.9856 26.733 88.6484 26.0625C88.3151 25.3883 88.1484 24.5985 88.1484 23.6932C88.1484 22.7992 88.3151 22.0114 88.6484 21.3295C88.9856 20.6477 89.4553 20.1155 90.0575 19.733C90.6636 19.3504 91.3719 19.1591 92.1825 19.1591C92.675 19.1591 93.1522 19.2405 93.6143 19.4034C94.0765 19.5663 94.4912 19.822 94.8587 20.1705C95.2261 20.5189 95.5159 20.9716 95.728 21.5284C95.9401 22.0814 96.0462 22.7538 96.0462 23.5455V24.1477H89.1087V22.875H94.3814C94.3814 22.428 94.2905 22.0322 94.1087 21.6875C93.9268 21.339 93.6712 21.0644 93.3416 20.8636C93.0159 20.6629 92.6333 20.5625 92.1939 20.5625C91.7166 20.5625 91.3 20.6799 90.9439 20.9148C90.5916 21.1458 90.3189 21.4489 90.1257 21.8239C89.9363 22.1951 89.8416 22.5985 89.8416 23.0341V24.0284C89.8416 24.6117 89.9439 25.108 90.1484 25.517C90.3568 25.9261 90.6465 26.2386 91.0178 26.4545C91.389 26.6667 91.8227 26.7727 92.3189 26.7727C92.6409 26.7727 92.9344 26.7273 93.1996 26.6364C93.4647 26.5417 93.6939 26.4015 93.8871 26.2159C94.0803 26.0303 94.228 25.8011 94.3303 25.5284L95.9382 25.8182C95.8094 26.2917 95.5784 26.7064 95.245 27.0625C94.9155 27.4148 94.5007 27.6894 94.0007 27.8864C93.5045 28.0795 92.9382 28.1761 92.3018 28.1761ZM97.9311 28V19.2727H99.5732V20.6591H99.6641C99.8232 20.1894 100.103 19.8201 100.505 19.5511C100.91 19.2784 101.369 19.142 101.88 19.142C101.986 19.142 102.111 19.1458 102.255 19.1534C102.403 19.161 102.518 19.1705 102.602 19.1818V20.8068C102.533 20.7879 102.412 20.767 102.238 20.7443C102.064 20.7178 101.889 20.7045 101.715 20.7045C101.314 20.7045 100.956 20.7898 100.641 20.9602C100.331 21.1269 100.085 21.3598 99.9027 21.6591C99.7209 21.9545 99.63 22.2917 99.63 22.6705V28H97.9311ZM107.521 28.1761C106.661 28.1761 105.92 27.9924 105.299 27.625C104.682 27.2538 104.204 26.733 103.867 26.0625C103.534 25.3883 103.367 24.5985 103.367 23.6932C103.367 22.7992 103.534 22.0114 103.867 21.3295C104.204 20.6477 104.674 20.1155 105.276 19.733C105.882 19.3504 106.591 19.1591 107.401 19.1591C107.894 19.1591 108.371 19.2405 108.833 19.4034C109.295 19.5663 109.71 19.822 110.077 20.1705C110.445 20.5189 110.735 20.9716 110.947 21.5284C111.159 22.0814 111.265 22.7538 111.265 23.5455V24.1477H104.327V22.875H109.6C109.6 22.428 109.509 22.0322 109.327 21.6875C109.146 21.339 108.89 21.0644 108.56 20.8636C108.235 20.6629 107.852 20.5625 107.413 20.5625C106.935 20.5625 106.519 20.6799 106.163 20.9148C105.81 21.1458 105.538 21.4489 105.344 21.8239C105.155 22.1951 105.06 22.5985 105.06 23.0341V24.0284C105.06 24.6117 105.163 25.108 105.367 25.517C105.576 25.9261 105.865 26.2386 106.237 26.4545C106.608 26.6667 107.041 26.7727 107.538 26.7727C107.86 26.7727 108.153 26.7273 108.418 26.6364C108.683 26.5417 108.913 26.4015 109.106 26.2159C109.299 26.0303 109.447 25.8011 109.549 25.5284L111.157 25.8182C111.028 26.2917 110.797 26.7064 110.464 27.0625C110.134 27.4148 109.719 27.6894 109.219 27.8864C108.723 28.0795 108.157 28.1761 107.521 28.1761ZM116.417 28.1705C115.712 28.1705 115.084 27.9905 114.531 27.6307C113.981 27.267 113.549 26.75 113.235 26.0795C112.924 25.4053 112.769 24.5966 112.769 23.6534C112.769 22.7102 112.926 21.9034 113.241 21.233C113.559 20.5625 113.995 20.0492 114.548 19.6932C115.101 19.3371 115.728 19.1591 116.428 19.1591C116.97 19.1591 117.406 19.25 117.735 19.4318C118.068 19.6098 118.326 19.8182 118.508 20.0568C118.693 20.2955 118.837 20.5057 118.94 20.6875H119.042V16.3636H120.741V28H119.082V26.642H118.94C118.837 26.8277 118.69 27.0398 118.496 27.2784C118.307 27.517 118.046 27.7254 117.712 27.9034C117.379 28.0814 116.947 28.1705 116.417 28.1705ZM116.792 26.7216C117.281 26.7216 117.693 26.5928 118.031 26.3352C118.371 26.0739 118.629 25.7121 118.803 25.25C118.981 24.7879 119.07 24.25 119.07 23.6364C119.07 23.0303 118.983 22.5 118.809 22.0455C118.635 21.5909 118.379 21.2367 118.042 20.983C117.705 20.7292 117.288 20.6023 116.792 20.6023C116.281 20.6023 115.854 20.7348 115.513 21C115.173 21.2652 114.915 21.6269 114.741 22.0852C114.57 22.5436 114.485 23.0606 114.485 23.6364C114.485 24.2197 114.572 24.7443 114.746 25.2102C114.921 25.6761 115.178 26.0455 115.519 26.3182C115.864 26.5871 116.288 26.7216 116.792 26.7216ZM127.536 28V16.3636H129.235V20.6875H129.337C129.436 20.5057 129.578 20.2955 129.763 20.0568C129.949 19.8182 130.207 19.6098 130.536 19.4318C130.866 19.25 131.301 19.1591 131.843 19.1591C132.548 19.1591 133.176 19.3371 133.729 19.6932C134.282 20.0492 134.716 20.5625 135.031 21.233C135.349 21.9034 135.508 22.7102 135.508 23.6534C135.508 24.5966 135.351 25.4053 135.036 26.0795C134.722 26.75 134.29 27.267 133.741 27.6307C133.192 27.9905 132.565 28.1705 131.86 28.1705C131.33 28.1705 130.896 28.0814 130.559 27.9034C130.226 27.7254 129.964 27.517 129.775 27.2784C129.585 27.0398 129.44 26.8277 129.337 26.642H129.195V28H127.536ZM129.201 23.6364C129.201 24.25 129.29 24.7879 129.468 25.25C129.646 25.7121 129.904 26.0739 130.241 26.3352C130.578 26.5928 130.991 26.7216 131.479 26.7216C131.987 26.7216 132.411 26.5871 132.752 26.3182C133.093 26.0455 133.351 25.6761 133.525 25.2102C133.703 24.7443 133.792 24.2197 133.792 23.6364C133.792 23.0606 133.705 22.5436 133.531 22.0852C133.36 21.6269 133.103 21.2652 132.758 21C132.417 20.7348 131.991 20.6023 131.479 20.6023C130.987 20.6023 130.57 20.7292 130.229 20.983C129.892 21.2367 129.637 21.5909 129.462 22.0455C129.288 22.5 129.201 23.0303 129.201 23.6364ZM138.192 31.2727C137.939 31.2727 137.708 31.2519 137.499 31.2102C137.291 31.1723 137.136 31.1307 137.033 31.0852L137.442 29.6932C137.753 29.7765 138.03 29.8125 138.272 29.8011C138.514 29.7898 138.728 29.6989 138.914 29.5284C139.103 29.358 139.27 29.0795 139.414 28.6932L139.624 28.1136L136.431 19.2727H138.249L140.46 26.0455H140.55L142.761 19.2727H144.585L140.988 29.1648C140.821 29.6193 140.609 30.0038 140.352 30.3182C140.094 30.6364 139.787 30.875 139.431 31.0341C139.075 31.1932 138.662 31.2727 138.192 31.2727Z" fill="white"/>
<path d="M148.999 28V26.5568L153.271 21.267V21.2045H149.146V19.2727H156.186V20.8466L152.175 26.0057V26.0682H156.334V28H148.999ZM160.605 22.9545V28H158.185V19.2727H160.491V20.8125H160.594C160.787 20.3049 161.111 19.9034 161.565 19.608C162.02 19.3087 162.571 19.1591 163.219 19.1591C163.825 19.1591 164.353 19.2917 164.804 19.5568C165.255 19.822 165.605 20.2008 165.855 20.6932C166.105 21.1818 166.23 21.7652 166.23 22.4432V28H163.81V22.875C163.813 22.3409 163.677 21.9242 163.401 21.625C163.124 21.322 162.743 21.1705 162.259 21.1705C161.933 21.1705 161.645 21.2405 161.395 21.3807C161.149 21.5208 160.955 21.7254 160.815 21.9943C160.679 22.2595 160.609 22.5795 160.605 22.9545ZM172.081 28.1705C171.187 28.1705 170.418 27.9811 169.774 27.6023C169.134 27.2197 168.642 26.6894 168.297 26.0114C167.956 25.3333 167.786 24.553 167.786 23.6705C167.786 22.7765 167.958 21.9924 168.303 21.3182C168.651 20.6402 169.145 20.1117 169.786 19.733C170.426 19.3504 171.187 19.1591 172.07 19.1591C172.831 19.1591 173.498 19.2973 174.07 19.5739C174.642 19.8504 175.094 20.2386 175.428 20.7386C175.761 21.2386 175.945 21.8258 175.979 22.5H173.695C173.63 22.0644 173.46 21.714 173.183 21.4489C172.911 21.1799 172.553 21.0455 172.109 21.0455C171.734 21.0455 171.407 21.1477 171.126 21.3523C170.85 21.553 170.634 21.8466 170.479 22.233C170.323 22.6193 170.246 23.0871 170.246 23.6364C170.246 24.1932 170.321 24.6667 170.473 25.0568C170.628 25.447 170.846 25.7443 171.126 25.9489C171.407 26.1534 171.734 26.2557 172.109 26.2557C172.386 26.2557 172.634 26.1989 172.854 26.0852C173.077 25.9716 173.261 25.8068 173.405 25.5909C173.553 25.3712 173.649 25.108 173.695 24.8011H175.979C175.941 25.4678 175.759 26.0549 175.433 26.5625C175.111 27.0663 174.666 27.4602 174.098 27.7443C173.53 28.0284 172.857 28.1705 172.081 28.1705ZM177.528 28V19.2727H179.949V28H177.528ZM178.744 18.1477C178.384 18.1477 178.076 18.0284 177.818 17.7898C177.564 17.5473 177.438 17.2576 177.438 16.9205C177.438 16.5871 177.564 16.3011 177.818 16.0625C178.076 15.8201 178.384 15.6989 178.744 15.6989C179.104 15.6989 179.411 15.8201 179.665 16.0625C179.922 16.3011 180.051 16.5871 180.051 16.9205C180.051 17.2576 179.922 17.5473 179.665 17.7898C179.411 18.0284 179.104 18.1477 178.744 18.1477Z" fill="white"/>
<path d="M48 0H47V44H48V0Z" fill="#8CFFCE"/>
<rect x="6" y="16" width="34" height="6.46701" fill="white"/>
<rect x="12.7185" y="19.6954" width="20.3593" height="9.30457" fill="white"/>
</svg>
