<svg width="122" height="155" viewBox="0 0 122 155" fill="none" xmlns="http://www.w3.org/2000/svg">
<circle cx="50" cy="50" r="50" fill="#5598E6" fill-opacity="0.5"/>
<path d="M36.6364 150.182V54.1818H49.9091V65.5H51.0455C51.8333 64.0455 52.9697 62.3636 54.4545 60.4545C55.9394 58.5455 58 56.8788 60.6364 55.4545C63.2727 54 66.7576 53.2727 71.0909 53.2727C76.7273 53.2727 81.7576 54.697 86.1818 57.5455C90.6061 60.3939 94.0758 64.5 96.5909 69.8636C99.1364 75.2273 100.409 81.6818 100.409 89.2273C100.409 96.7727 99.1515 103.242 96.6364 108.636C94.1212 114 90.6667 118.136 86.2727 121.045C81.8788 123.924 76.8636 125.364 71.2273 125.364C66.9848 125.364 63.5152 124.652 60.8182 123.227C58.1515 121.803 56.0606 120.136 54.5455 118.227C53.0303 116.318 51.8636 114.621 51.0455 113.136H50.2273V150.182H36.6364ZM49.9545 89.0909C49.9545 94 50.6667 98.303 52.0909 102C53.5152 105.697 55.5758 108.591 58.2727 110.682C60.9697 112.742 64.2727 113.773 68.1818 113.773C72.2424 113.773 75.6364 112.697 78.3636 110.545C81.0909 108.364 83.1515 105.409 84.5455 101.682C85.9697 97.9545 86.6818 93.7576 86.6818 89.0909C86.6818 84.4848 85.9849 80.3485 84.5909 76.6818C83.2273 73.0151 81.1667 70.1212 78.4091 68C75.6818 65.8788 72.2727 64.8182 68.1818 64.8182C64.2424 64.8182 60.9091 65.8333 58.1818 67.8636C55.4848 69.8939 53.4394 72.7273 52.0455 76.3636C50.6515 80 49.9545 84.2424 49.9545 89.0909Z" fill="white"/>
<g clip-path="url(#clip0_1_47)">
<path d="M48.7086 66.9722C47.7447 66.7534 46.7349 67.0235 46.0088 67.6942L42.2438 71.1726C40.4174 72.8599 37.449 71.7204 37.2207 69.2444L36.7502 64.1391C36.6595 63.1551 36.09 62.2789 35.2277 61.7964L30.7535 59.293C28.5823 58.0782 28.7483 54.9005 31.0343 53.9185L35.7362 51.8987C36.6438 51.5089 37.3013 50.6972 37.4943 49.7285L38.4961 44.7C38.982 42.2614 42.0532 41.4385 43.6932 43.3075L47.075 47.1613C47.7266 47.9038 48.7018 48.2779 49.6828 48.1618L54.7646 47.56C57.2353 47.2674 58.968 49.9363 57.695 52.074L55.072 56.4791C54.5664 57.3281 54.5114 58.3717 54.9248 59.2692L57.0669 63.9193C58.1079 66.1789 56.1043 68.6507 53.6782 68.1001L48.7086 66.9722Z" fill="#E7EC00"/>
</g>
<defs>
<clipPath id="clip0_1_47">
<rect width="44" height="44" fill="white" transform="translate(22 33)"/>
</clipPath>
</defs>
</svg>
